<mxfile host="app.diagrams.net" modified="2020-08-27T08:22:30.711Z" agent="5.0 (Windows NT 10.0; Win64; x64) AppleWebKit/537.36 (KHTML, like Gecko) Chrome/84.0.4147.135 Safari/537.36 Edg/84.0.522.63" etag="GGtuJMWgcXfzyXo1kN_H" version="13.6.5" type="github">
  <diagram id="C5RBs43oDa-KdzZeNtuy" name="Page-1">
    <mxGraphModel dx="1422" dy="794" grid="1" gridSize="10" guides="1" tooltips="1" connect="1" arrows="1" fold="1" page="1" pageScale="1" pageWidth="827" pageHeight="1169" math="0" shadow="0">
      <root>
        <mxCell id="WIyWlLk6GJQsqaUBKTNV-0" />
        <mxCell id="WIyWlLk6GJQsqaUBKTNV-1" parent="WIyWlLk6GJQsqaUBKTNV-0" />
        <mxCell id="bPE0crY-TqeFxwn45VMM-2" value="" style="edgeStyle=orthogonalEdgeStyle;rounded=0;orthogonalLoop=1;jettySize=auto;html=1;" edge="1" parent="WIyWlLk6GJQsqaUBKTNV-1" source="bPE0crY-TqeFxwn45VMM-0" target="bPE0crY-TqeFxwn45VMM-1">
          <mxGeometry relative="1" as="geometry" />
        </mxCell>
        <mxCell id="bPE0crY-TqeFxwn45VMM-0" value="Aloittava HTML-sivu" style="ellipse;whiteSpace=wrap;html=1;" vertex="1" parent="WIyWlLk6GJQsqaUBKTNV-1">
          <mxGeometry x="160" y="30" width="120" height="80" as="geometry" />
        </mxCell>
        <mxCell id="bPE0crY-TqeFxwn45VMM-4" value="" style="edgeStyle=orthogonalEdgeStyle;rounded=0;orthogonalLoop=1;jettySize=auto;html=1;" edge="1" parent="WIyWlLk6GJQsqaUBKTNV-1" source="bPE0crY-TqeFxwn45VMM-1" target="bPE0crY-TqeFxwn45VMM-3">
          <mxGeometry relative="1" as="geometry" />
        </mxCell>
        <mxCell id="bPE0crY-TqeFxwn45VMM-1" value="Pyydä käyttäjältä&lt;br&gt;vuosilukua" style="shape=parallelogram;perimeter=parallelogramPerimeter;whiteSpace=wrap;html=1;fixedSize=1;" vertex="1" parent="WIyWlLk6GJQsqaUBKTNV-1">
          <mxGeometry x="160" y="130" width="120" height="60" as="geometry" />
        </mxCell>
        <mxCell id="bPE0crY-TqeFxwn45VMM-6" value="" style="edgeStyle=orthogonalEdgeStyle;rounded=0;orthogonalLoop=1;jettySize=auto;html=1;" edge="1" parent="WIyWlLk6GJQsqaUBKTNV-1" source="bPE0crY-TqeFxwn45VMM-3" target="bPE0crY-TqeFxwn45VMM-5">
          <mxGeometry relative="1" as="geometry" />
        </mxCell>
        <mxCell id="bPE0crY-TqeFxwn45VMM-3" value="Määritä vuosiluku-&lt;br&gt;muuttuja" style="whiteSpace=wrap;html=1;" vertex="1" parent="WIyWlLk6GJQsqaUBKTNV-1">
          <mxGeometry x="160" y="220" width="120" height="60" as="geometry" />
        </mxCell>
        <mxCell id="bPE0crY-TqeFxwn45VMM-8" value="" style="edgeStyle=orthogonalEdgeStyle;rounded=0;orthogonalLoop=1;jettySize=auto;html=1;" edge="1" parent="WIyWlLk6GJQsqaUBKTNV-1" source="bPE0crY-TqeFxwn45VMM-5" target="bPE0crY-TqeFxwn45VMM-7">
          <mxGeometry relative="1" as="geometry" />
        </mxCell>
        <mxCell id="bPE0crY-TqeFxwn45VMM-5" value="Lue käyttäjän syöte&lt;br&gt;vuosilukumuuttujaan" style="whiteSpace=wrap;html=1;" vertex="1" parent="WIyWlLk6GJQsqaUBKTNV-1">
          <mxGeometry x="160" y="300" width="120" height="60" as="geometry" />
        </mxCell>
        <mxCell id="bPE0crY-TqeFxwn45VMM-10" value="" style="edgeStyle=orthogonalEdgeStyle;rounded=0;orthogonalLoop=1;jettySize=auto;html=1;" edge="1" parent="WIyWlLk6GJQsqaUBKTNV-1" source="bPE0crY-TqeFxwn45VMM-7" target="bPE0crY-TqeFxwn45VMM-9">
          <mxGeometry relative="1" as="geometry" />
        </mxCell>
        <mxCell id="bPE0crY-TqeFxwn45VMM-14" value="" style="edgeStyle=orthogonalEdgeStyle;rounded=0;orthogonalLoop=1;jettySize=auto;html=1;" edge="1" parent="WIyWlLk6GJQsqaUBKTNV-1" source="bPE0crY-TqeFxwn45VMM-7" target="bPE0crY-TqeFxwn45VMM-13">
          <mxGeometry relative="1" as="geometry" />
        </mxCell>
        <mxCell id="bPE0crY-TqeFxwn45VMM-7" value="Onko muuttuja &lt;br&gt;jaollinen sekä &lt;br&gt;neljällä, että ei &lt;br&gt;sadalla" style="rhombus;whiteSpace=wrap;html=1;" vertex="1" parent="WIyWlLk6GJQsqaUBKTNV-1">
          <mxGeometry x="150" y="390" width="140" height="120" as="geometry" />
        </mxCell>
        <mxCell id="bPE0crY-TqeFxwn45VMM-16" value="" style="edgeStyle=orthogonalEdgeStyle;rounded=0;orthogonalLoop=1;jettySize=auto;html=1;" edge="1" parent="WIyWlLk6GJQsqaUBKTNV-1" source="bPE0crY-TqeFxwn45VMM-9" target="bPE0crY-TqeFxwn45VMM-15">
          <mxGeometry relative="1" as="geometry" />
        </mxCell>
        <mxCell id="bPE0crY-TqeFxwn45VMM-18" value="" style="edgeStyle=orthogonalEdgeStyle;rounded=0;orthogonalLoop=1;jettySize=auto;html=1;" edge="1" parent="WIyWlLk6GJQsqaUBKTNV-1" source="bPE0crY-TqeFxwn45VMM-9" target="bPE0crY-TqeFxwn45VMM-17">
          <mxGeometry relative="1" as="geometry" />
        </mxCell>
        <mxCell id="bPE0crY-TqeFxwn45VMM-9" value="Onko muuttuja&lt;br&gt;jaollinen&lt;br&gt;neljälläsadalla" style="rhombus;whiteSpace=wrap;html=1;" vertex="1" parent="WIyWlLk6GJQsqaUBKTNV-1">
          <mxGeometry x="160" y="540" width="120" height="110" as="geometry" />
        </mxCell>
        <mxCell id="bPE0crY-TqeFxwn45VMM-11" value="Ei" style="text;html=1;resizable=0;autosize=1;align=center;verticalAlign=middle;points=[];fillColor=none;strokeColor=none;rounded=0;" vertex="1" parent="WIyWlLk6GJQsqaUBKTNV-1">
          <mxGeometry x="140" y="390" width="30" height="20" as="geometry" />
        </mxCell>
        <mxCell id="bPE0crY-TqeFxwn45VMM-12" value="Ei" style="text;html=1;resizable=0;autosize=1;align=center;verticalAlign=middle;points=[];fillColor=none;strokeColor=none;rounded=0;" vertex="1" parent="WIyWlLk6GJQsqaUBKTNV-1">
          <mxGeometry x="140" y="520" width="30" height="20" as="geometry" />
        </mxCell>
        <mxCell id="bPE0crY-TqeFxwn45VMM-13" value="Tulosta:Vuosi on karkausvuosi" style="shape=parallelogram;perimeter=parallelogramPerimeter;whiteSpace=wrap;html=1;fixedSize=1;" vertex="1" parent="WIyWlLk6GJQsqaUBKTNV-1">
          <mxGeometry x="380" y="420" width="120" height="60" as="geometry" />
        </mxCell>
        <mxCell id="bPE0crY-TqeFxwn45VMM-19" style="edgeStyle=orthogonalEdgeStyle;rounded=0;orthogonalLoop=1;jettySize=auto;html=1;entryX=1;entryY=0.5;entryDx=0;entryDy=0;" edge="1" parent="WIyWlLk6GJQsqaUBKTNV-1" source="bPE0crY-TqeFxwn45VMM-15" target="bPE0crY-TqeFxwn45VMM-17">
          <mxGeometry relative="1" as="geometry">
            <mxPoint x="420" y="730" as="targetPoint" />
            <Array as="points">
              <mxPoint x="420" y="720" />
            </Array>
          </mxGeometry>
        </mxCell>
        <mxCell id="bPE0crY-TqeFxwn45VMM-15" value="Tulosta: Vuosi on karkausvuosi" style="shape=parallelogram;perimeter=parallelogramPerimeter;whiteSpace=wrap;html=1;fixedSize=1;" vertex="1" parent="WIyWlLk6GJQsqaUBKTNV-1">
          <mxGeometry x="360" y="565" width="120" height="60" as="geometry" />
        </mxCell>
        <mxCell id="bPE0crY-TqeFxwn45VMM-17" value="The End" style="ellipse;whiteSpace=wrap;html=1;" vertex="1" parent="WIyWlLk6GJQsqaUBKTNV-1">
          <mxGeometry x="160" y="680" width="120" height="80" as="geometry" />
        </mxCell>
      </root>
    </mxGraphModel>
  </diagram>
</mxfile>
